<?xml version="1.0" encoding="UTF-8" standalone="no"?>
<!-- Created with Inkscape (http://www.inkscape.org/) -->

<svg
   version="1.1"
   id="svg1"
   width="100.1433"
   height="100"
   viewBox="0 0 100.14331 100"
   sodipodi:docname="icons.svg"
   xml:space="preserve"
   inkscape:version="1.3.2 (091e20ef0f, 2023-11-25)"
   xmlns:inkscape="http://www.inkscape.org/namespaces/inkscape"
   xmlns:sodipodi="http://sodipodi.sourceforge.net/DTD/sodipodi-0.dtd"
   xmlns="http://www.w3.org/2000/svg"
   xmlns:svg="http://www.w3.org/2000/svg"><defs
     id="defs1" /><sodipodi:namedview
     id="namedview1"
     pagecolor="#505050"
     bordercolor="#ffffff"
     borderopacity="1"
     inkscape:showpageshadow="0"
     inkscape:pageopacity="0"
     inkscape:pagecheckerboard="1"
     inkscape:deskcolor="#505050"
     inkscape:zoom="2.3452172"
     inkscape:cx="-24.731185"
     inkscape:cy="-1.2791992"
     inkscape:window-width="1920"
     inkscape:window-height="1080"
     inkscape:window-x="0"
     inkscape:window-y="0"
     inkscape:window-maximized="1"
     inkscape:current-layer="g1" /><g
     inkscape:groupmode="layer"
     inkscape:label="Image"
     id="g1"
     transform="translate(28.694063,-208.03139)"><path
       style="fill:#ffffff;fill-opacity:1;stroke-width:0.394614"
       d="m 13.638352,307.62496 c -11.5394046,-2.07329 -20.5065856,-6.83535 -28.428596,-15.09713 -8.31779,-8.67453 -13.048018,-19.59975 -13.673003,-31.57997 l -0.230816,-4.42448 1.396069,-1.39607 c 1.173124,-1.17312 1.67193,-1.39607 3.123488,-1.39607 3.378229,0 4.447662,1.62546 4.803117,7.30036 0.957676,15.28949 10.9583454,29.18763 25.1616714,34.96772 5.8405606,2.37683 8.6262006,2.88792 15.7403406,2.88792 6.97655,0 9.648234,-0.47225 15.339662,-2.71147 10.114561,-3.97944 18.784679,-12.64955 22.764119,-22.76411 2.20111,-5.59459 2.70325,-8.38839 2.72158,-15.14236 0.0182,-6.7118 -0.42112,-9.38542 -2.42115,-14.73396 -4.71062,-12.5973 -15.019531,-21.72321 -28.67636,-25.38557 -3.732136,-1.00086 -11.390326,-1.36688 -15.682277,-0.74953 -6.2963036,0.90564 -13.4980346,3.87751 -18.5116126,7.63901 -2.665072,1.9995 -5.919203,5.00327 -5.919203,5.46379 0,0.18734 1.615942,0.34062 3.590983,0.34062 3.557712,0 3.603414,0.0124 4.93266904,1.34168 1.09323097,1.09323 1.34168596,1.64387 1.34168596,2.97349 0,0.89749 -0.30266099,2.09372 -0.67257999,2.65828 -1.23367497,1.88283 -2.49320201,2.10271 -12.04103241,2.10204 -13.251241,-7.9e-4 -12.934731,0.31559 -12.935655,-12.93565 -6.71e-4,-9.44241 0.229189,-10.81678 2.018574,-12.07012 0.531231,-0.37209 1.696619,-0.64349 2.763101,-0.64349 1.617267,0 1.995196,0.17176 3.069104,1.39488 1.16358,1.32524 1.224719,1.56164 1.224719,4.73536 0,1.83727 0.06782,3.34048 0.150707,3.34048 0.08289,0 1.015162,-0.80935 2.071721,-1.79857 8.1234014,-7.60561 17.7081924,-12.19404 28.470578,-13.62943 4.231232,-0.56432 12.583373,-0.2432 16.660619,0.64056 14.988788,3.24888 27.828709,13.19536 34.626049,26.82316 3.70914,7.43634 5.03261,13.29963 5.03261,22.29566 0,9.29418 -1.34538,15.02018 -5.39294,22.95259 -6.76629,13.26058 -19.398275,22.90981 -34.265719,26.17465 -4.025208,0.88392 -14.265354,1.12409 -18.152223,0.42573 z m 26.044494,-25.75729 c -0.63384,-0.1173 -4.830902,-4.02096 -11.739753,-10.91905 L 17.189874,260.21215 v -15.70113 -15.70114 l 1.133279,-1.13328 c 2.027256,-2.02725 4.387684,-2.02725 6.41494,0 l 1.133279,1.13328 v 13.52876 13.52877 l 9.614163,9.68513 c 10.213842,10.28925 10.492411,10.67821 9.584934,13.38348 -0.724633,2.16019 -2.96601,3.37983 -5.387623,2.93165 z"
       id="path5" /></g></svg>
