<?xml version="1.0" encoding="UTF-8" standalone="no"?>
<!-- Created with Inkscape (http://www.inkscape.org/) -->

<svg
   version="1.1"
   id="svg1"
   width="99.977074"
   height="100.00005"
   viewBox="0 0 99.977086 100.00004"
   sodipodi:docname="clock.svg"
   xml:space="preserve"
   inkscape:version="1.3.2 (091e20ef0f, 2023-11-25)"
   xmlns:inkscape="http://www.inkscape.org/namespaces/inkscape"
   xmlns:sodipodi="http://sodipodi.sourceforge.net/DTD/sodipodi-0.dtd"
   xmlns="http://www.w3.org/2000/svg"
   xmlns:svg="http://www.w3.org/2000/svg"><defs
     id="defs1" /><sodipodi:namedview
     id="namedview1"
     pagecolor="#505050"
     bordercolor="#ffffff"
     borderopacity="1"
     inkscape:showpageshadow="0"
     inkscape:pageopacity="0"
     inkscape:pagecheckerboard="1"
     inkscape:deskcolor="#505050"
     inkscape:zoom="2.4651074"
     inkscape:cx="-2.433971"
     inkscape:cy="47.868097"
     inkscape:window-width="1920"
     inkscape:window-height="1080"
     inkscape:window-x="0"
     inkscape:window-y="0"
     inkscape:window-maximized="1"
     inkscape:current-layer="g1" /><g
     inkscape:groupmode="layer"
     inkscape:label="Image"
     id="g1"
     transform="translate(92.421989,-99.735248)"><path
       style="fill:#ffffff;fill-opacity:1;stroke-width:1.26183"
       d="m -44.680656,199.6904 c -4.54393,-0.22582 -8.623043,-0.95587 -12.965316,-2.3204 -5.149551,-1.61822 -10.542201,-4.41233 -14.929149,-7.73526 -3.721363,-2.81877 -7.141404,-6.25152 -9.875615,-9.91227 -4.055857,-5.43029 -6.941051,-11.53956 -8.555669,-18.11626 -0.755801,-3.07852 -1.184413,-6.03482 -1.377796,-9.5031 -0.07353,-1.31883 -0.03451,-4.56983 0.07175,-5.97627 0.316888,-4.19465 1.13808,-8.31174 2.429058,-12.17817 4.667207,-13.97814 15.147736,-25.11273 28.821849,-30.62051 4.0177,-1.61829 8.397061,-2.74161 12.65239,-3.2454 3.846377,-0.455363 7.937992,-0.463399 11.719401,-0.023 7.854062,0.9147 15.286254,3.63228 21.908577,8.01087 2.211416,1.46217 4.638669,3.38087 6.4907172,5.13082 0.284286,0.26861 0.5780924,0.54083 0.6529013,0.60492 0.2636107,0.22587 2.16287,2.23141 2.7724521,2.92759 4.81497825,5.49903 8.3895444,12.00096 10.4143278,18.9431 1.0307823,3.53411 1.6324041,6.908 1.9112686,10.71837 0.166098,2.26954 0.1080378,5.88682 -0.13166,8.20357 -1.027186,9.92787 -4.7758516,19.01948 -11.0032499,26.68606 -0.6394236,0.7872 -1.7005639,2.00369 -2.2787834,2.6124 -0.2296387,0.24174 -0.4713509,0.50268 -0.5371398,0.57989 -0.2344438,0.27507 -2.2822764,2.21481 -3.0256623,2.86593 -2.6032046,2.28011 -5.5656146,4.36635 -8.5936146,6.0519 -5.798447,3.22775 -12.200348,5.28283 -18.775457,6.0271 -2.434958,0.27563 -5.513899,0.38154 -7.795576,0.26814 z m 5.500526,-9.73275 c 5.445079,-0.49089 10.089264,-1.78977 14.787266,-4.1357 3.933445,-1.96414 7.294275,-4.38357 10.439007,-7.51493 3.869392,-3.85293 6.8577631,-8.34408 8.9092068,-13.3894 1.5231273,-3.74597 2.4556276,-7.65585 2.8336541,-11.88122 0.1045795,-1.16891 0.1472365,-4.34365 0.073662,-5.4824 -0.2532934,-3.9205 -0.9041924,-7.2888 -2.0733951,-10.72944 -0.4220068,-1.24184 -0.5573655,-1.59854 -1.1303267,-2.97867 -0.6318472,-1.52198 -1.8026993,-3.77019 -2.8122052,-5.39986 -2.4170709,-3.90194 -5.7755759,-7.64884 -9.3485279,-10.42965 -5.083307,-3.95629 -10.64949,-6.52686 -16.941753,-7.82403 -3.700734,-0.76292 -7.768693,-0.97443 -11.792648,-0.61313 -2.335917,0.20973 -4.852936,0.68205 -7.178134,1.34698 -3.556902,1.01717 -6.81485,2.43256 -9.912659,4.30647 -5.503228,3.329 -10.147471,7.95062 -13.527427,13.46156 -5.665778,9.23792 -7.362714,20.45972 -4.685679,30.98631 1.423583,5.59779 4.083992,10.92104 7.685781,15.37857 1.733461,2.14532 4.033063,4.43672 6.181379,6.15933 4.219085,3.38305 9.137127,5.9164 14.247401,7.33903 2.929004,0.81539 5.264797,1.21779 8.50777,1.46566 0.911214,0.0696 4.721037,0.0261 5.737624,-0.0654 z m 11.548495,-24.41512 c -1.821375,-1.09282 -6.953981,-4.16428 -15.699116,-9.3947 -1.906844,-1.14047 -3.571401,-2.13912 -3.699015,-2.21921 l -0.232024,-0.14561 0.01224,-14.92489 0.01224,-14.9249 h 4.809839 4.809836 l 0.02442,12.20572 0.02442,12.20571 0.415062,0.25133 c 0.228284,0.13824 2.612449,1.56543 5.298146,3.17155 2.685696,1.60612 5.641184,3.37372 6.567748,3.928 0.926565,0.55429 2.360361,1.41052 3.186212,1.90274 0.825851,0.4922 1.501548,0.9145 1.501548,0.93843 0,0.0239 -0.238321,0.4332 -0.529605,0.90948 -0.291282,0.47631 -0.755603,1.23958 -1.031825,1.69614 -0.27622,0.45657 -0.617546,1.01691 -0.758501,1.2452 -0.331225,0.53642 -1.251953,2.05037 -2.026013,3.33138 -0.335713,0.55557 -0.63236,1.01014 -0.659218,1.01017 -0.02685,2e-5 -0.938771,-0.53393 -2.026478,-1.18654 z"
       id="path1" /></g></svg>
