<?xml version="1.0" encoding="UTF-8" standalone="no"?>
<!-- Created with Inkscape (http://www.inkscape.org/) -->

<svg
   version="1.1"
   id="svg1"
   width="99.977074"
   height="100.00004"
   viewBox="0 0 99.977085 100.00004"
   sodipodi:docname="icons.svg"
   xml:space="preserve"
   inkscape:version="1.3.2 (091e20ef0f, 2023-11-25)"
   xmlns:inkscape="http://www.inkscape.org/namespaces/inkscape"
   xmlns:sodipodi="http://sodipodi.sourceforge.net/DTD/sodipodi-0.dtd"
   xmlns="http://www.w3.org/2000/svg"
   xmlns:svg="http://www.w3.org/2000/svg"><defs
     id="defs1" /><sodipodi:namedview
     id="namedview1"
     pagecolor="#505050"
     bordercolor="#ffffff"
     borderopacity="1"
     inkscape:showpageshadow="0"
     inkscape:pageopacity="0"
     inkscape:pagecheckerboard="1"
     inkscape:deskcolor="#505050"
     inkscape:zoom="1.5214933"
     inkscape:cx="18.402973"
     inkscape:cy="-4.6007432"
     inkscape:window-width="1920"
     inkscape:window-height="1080"
     inkscape:window-x="0"
     inkscape:window-y="0"
     inkscape:window-maximized="1"
     inkscape:current-layer="g1" /><g
     inkscape:groupmode="layer"
     inkscape:label="Image"
     id="g1"
     transform="translate(27.930899,-96.281694)"><path
       style="fill:#ffffff;fill-opacity:1;stroke-width:0.240712"
       d="m 20.418479,195.94451 c -0.43959,-0.22413 -1.08951,-0.78769 -1.44427,-1.25237 -0.63909,-0.83709 -0.64571,-0.88635 -0.71955,-5.35343 -0.0728,-4.4059 -0.0865,-4.51179 -0.60178,-4.64996 -0.28999,-0.0778 -0.80781,-0.14287 -1.15071,-0.14468 -1.1423,-0.006 -4.40919,-0.96324 -6.23684,-1.82743 -5.4916696,-2.59669 -9.63487962,-7.91615 -10.85950962,-13.94251 -0.67281998,-3.31095 -0.58660998,-8.17355 0.16268,-9.17569 0.93932,-1.25628 1.71490002,-1.65636 3.21096002,-1.65636 1.1332,0 1.53981,0.11795 2.23524,0.64837 1.33922,1.02148 1.63941,1.92092 1.6435,4.92439 0.006,4.48259 1.06719,7.40699 3.6102496,9.95005 2.85654,2.85654 5.30912,3.6067 11.79178,3.6067 3.1305,0 4.91124,-0.10798 5.9954,-0.36353 6.36694,-1.50079 10.47921,-7.95921 9.14417,-14.36113 -0.6622,-3.17545 -3.19469,-6.62807 -5.92481,-8.07745 -0.76539,-0.40633 -5.7786,-2.49049 -11.14046,-4.63146 -5.36187,-2.14097 -10.3270396,-4.22185 -11.0337296,-4.62419 -1.86819,-1.06361 -4.03862,-2.8736 -5.50239,-4.58863 -1.48823,-1.74368 -3.47620002,-5.62761 -4.03245002,-7.87826 -2.25363998,-9.11845 2.18321002,-18.62162 10.57900962,-22.6589 1.91434,-0.92055 5.16562,-1.89075 6.3572,-1.89704 0.3429,-0.002 0.86072,-0.0669 1.15071,-0.14468 0.5154,-0.13821 0.52894,-0.24336 0.60178,-4.67376 0.0815,-4.95837 0.13831,-5.16676 1.73186,-6.356524 1.03367,-0.77174 3.17353,-0.6958 4.28516,0.152084 1.47595,1.12576 1.63994,1.77788 1.63994,6.52112 0,4.16057 0.006,4.20983 0.5416,4.35333 0.29789,0.0798 0.82216,0.14663 1.16506,0.14843 1.1423,0.006 4.40919,0.96324 6.23685,1.82743 3.97738,1.88068 7.11941,5.00801 9.17117,9.12827 1.53092,3.07433 2.13472,5.84979 2.13914,9.83282 0.004,3.26497 -0.26757,4.12075 -1.63678,5.1651 -1.21413,0.92606 -3.20878,0.92606 -4.42291,0 -1.33922,-1.02147 -1.63941,-1.92092 -1.6435,-4.92439 -0.006,-4.48259 -1.06719,-7.40699 -3.61025,-9.95005 -2.84161,-2.84161 -5.31547,-3.60504 -11.69874,-3.61025 -5.13565,-0.004 -6.35543,0.184 -8.7245,1.34606 -4.8958396,2.40149 -7.6269096,8.01718 -6.5081096,13.38216 0.69256,3.32102 3.2124096,6.66522 6.1724696,8.19172 0.89396,0.46101 6.03839,2.59755 11.43206,4.74785 10.65141,4.24641 11.91774,4.90354 14.65484,7.60476 1.93202,1.90667 3.05857,3.5144 4.17608,5.95972 5.08736,11.13213 -1.28605,24.3344 -13.21034,27.36471 -1.04721,0.26613 -2.18458,0.48535 -2.52748,0.48716 -0.3429,0.002 -0.86717,0.0686 -1.16506,0.14843 -0.53547,0.1435 -0.5416,0.19277 -0.5416,4.35333 0,4.7247 -0.16653,5.3973 -1.60865,6.49726 -1.04808,0.79941 -2.75743,0.97605 -3.88449,0.40142 z"
       id="path4" /></g></svg>
