<?xml version="1.0" encoding="UTF-8" standalone="no"?>
<!-- Created with Inkscape (http://www.inkscape.org/) -->

<svg
   version="1.1"
   id="svg1"
   width="110.80669"
   height="100"
   viewBox="0 0 110.80671 100"
   sodipodi:docname="heart.svg"
   xml:space="preserve"
   inkscape:version="1.3.2 (091e20ef0f, 2023-11-25)"
   xmlns:inkscape="http://www.inkscape.org/namespaces/inkscape"
   xmlns:sodipodi="http://sodipodi.sourceforge.net/DTD/sodipodi-0.dtd"
   xmlns="http://www.w3.org/2000/svg"
   xmlns:svg="http://www.w3.org/2000/svg"><defs
     id="defs1" /><sodipodi:namedview
     id="namedview1"
     pagecolor="#505050"
     bordercolor="#ffffff"
     borderopacity="1"
     inkscape:showpageshadow="0"
     inkscape:pageopacity="0"
     inkscape:pagecheckerboard="1"
     inkscape:deskcolor="#505050"
     inkscape:zoom="1"
     inkscape:cx="-95"
     inkscape:cy="56"
     inkscape:window-width="1920"
     inkscape:window-height="1080"
     inkscape:window-x="0"
     inkscape:window-y="0"
     inkscape:window-maximized="1"
     inkscape:current-layer="g1" /><g
     inkscape:groupmode="layer"
     inkscape:label="Image"
     id="g1"
     transform="translate(-147.35448,-95.215641)"><path
       style="fill:#ffffff;fill-opacity:1;stroke-width:1.32575"
       d="m 201.37101,195.09463 c -2.27564,-0.34501 -3.35778,-0.92728 -10.21383,-5.49589 -27.94106,-18.61882 -43.76564,-41.72589 -43.80265,-63.96065 -0.0106,-6.51805 1.51786,-11.7251 4.96871,-16.92453 5.14376,-7.75015 13.28537,-12.532112 22.75714,-13.366372 2.81688,-0.2481 4.66995,-0.15588 7.38418,0.36748 6.19923,1.19534 12.49574,4.692902 18.31326,10.172572 l 2.01461,1.8976 1.70366,-1.62767 c 8.28153,-7.912122 17.09749,-11.574732 26.01269,-10.807002 9.39558,0.8091 17.61849,5.642052 22.73688,13.363392 3.72565,5.62035 5.11395,10.78293 4.89298,18.19517 -0.21022,7.05173 -1.50246,12.69353 -4.51831,19.72639 -4.0093,9.34954 -9.55501,17.20479 -18.33708,25.97368 -7.2903,7.27936 -14.2818,12.82207 -24.19149,19.17853 -4.76075,3.0537 -6.80525,3.7493 -9.72075,3.3073 z m 4.92602,-12.19847 c 26.43991,-17.09546 41.06581,-36.76529 41.82887,-56.25406 0.10312,-2.63498 0.0529,-3.48958 -0.30666,-5.21776 -1.82896,-8.7901 -9.06236,-15.26131 -17.92826,-16.03915 -6.03455,-0.52943 -11.54527,1.81602 -18.07109,7.69135 -1.205,1.08487 -3.03933,2.95278 -4.07632,4.15093 -2.21557,2.55987 -2.94861,3.00382 -4.96001,3.00382 -2.01141,0 -2.74444,-0.44395 -4.96002,-3.00382 -4.68261,-5.41034 -10.44806,-9.6176 -15.21916,-11.10599 -9.04536,-2.82181 -19.28923,1.92408 -23.41159,10.84639 -1.4435,3.12426 -1.72138,4.56068 -1.70334,8.80496 0.0229,5.40174 0.84996,9.59825 2.97018,15.07131 5.32678,13.75033 16.81173,26.84266 34.1635,38.94484 3.70211,2.58207 8.04017,5.30343 8.3055,5.21021 0.13955,-0.049 1.65532,-0.9954 3.3684,-2.10303 z"
       id="path3" /></g></svg>
