<?xml version="1.0" encoding="UTF-8" standalone="no"?>
<!-- Created with Inkscape (http://www.inkscape.org/) -->

<svg
   version="1.1"
   id="svg1"
   width="99.977104"
   height="100.00004"
   viewBox="0 0 99.977111 100.00004"
   sodipodi:docname="mult.svg"
   xml:space="preserve"
   inkscape:version="1.3.2 (091e20ef0f, 2023-11-25)"
   xmlns:inkscape="http://www.inkscape.org/namespaces/inkscape"
   xmlns:sodipodi="http://sodipodi.sourceforge.net/DTD/sodipodi-0.dtd"
   xmlns="http://www.w3.org/2000/svg"
   xmlns:svg="http://www.w3.org/2000/svg"><defs
     id="defs1" /><sodipodi:namedview
     id="namedview1"
     pagecolor="#505050"
     bordercolor="#ffffff"
     borderopacity="1"
     inkscape:showpageshadow="0"
     inkscape:pageopacity="0"
     inkscape:pagecheckerboard="1"
     inkscape:deskcolor="#505050"
     inkscape:zoom="0.73128675"
     inkscape:cx="-134.01036"
     inkscape:cy="251.61128"
     inkscape:window-width="1920"
     inkscape:window-height="1080"
     inkscape:window-x="0"
     inkscape:window-y="0"
     inkscape:window-maximized="1"
     inkscape:current-layer="g1" /><g
     inkscape:groupmode="layer"
     inkscape:label="Image"
     id="g1"
     transform="translate(-262.30596,-96.031394)"><path
       style="fill:#ffffff;fill-opacity:1;stroke-width:0.15768"
       d="m 277.68307,185.77437 c -2.08995,-0.75033 -3.56731,-1.95062 -4.43679,-3.60473 -1.34919,-2.56671 -1.33628,-5.04539 0.0394,-7.57148 0.30361,-0.55749 4.36374,-4.72733 14.19782,-14.58147 7.57494,-7.5904 13.77262,-13.90416 13.77262,-14.03058 0,-0.12643 -6.23265,-6.47528 -13.85034,-14.10857 -12.15054,-12.17543 -13.90441,-13.99231 -14.29089,-14.80436 -0.59933,-1.25927 -0.74867,-1.85736 -0.82896,-3.31997 -0.18146,-3.30555 2.08775,-6.51542 5.27134,-7.45647 1.01698,-0.30061 3.1984,-0.35085 4.23359,-0.0975 1.98369,0.48548 1.58353,0.12154 16.50789,15.01407 l 13.99318,13.96335 13.99495,-13.96302 c 14.80753,-14.77374 14.44042,-14.43808 16.41854,-15.01213 0.90976,-0.26401 3.2885,-0.21183 4.32469,0.0949 3.73291,1.10487 6.0668,5.24982 5.08293,9.02718 -0.58221,2.23526 -0.0205,1.61251 -14.93143,16.55398 -7.61769,7.63329 -13.85035,13.98214 -13.85035,14.10857 0,0.12642 6.19769,6.44018 13.77263,14.03058 9.83408,9.85414 13.89421,14.02398 14.19782,14.58147 1.02844,1.88842 1.30736,3.91857 0.78841,5.73868 -0.99456,3.48827 -3.83373,5.69867 -7.31443,5.69456 -1.39234,-0.002 -2.44108,-0.26112 -3.79672,-0.93938 -0.492,-0.24616 -4.78114,-4.42709 -14.57586,-14.20815 -7.63329,-7.62264 -13.98253,-13.85934 -14.10942,-13.85934 -0.12689,0 -6.47612,6.2367 -14.10941,13.85934 -9.79472,9.78106 -14.08386,13.96199 -14.57587,14.20815 -1.40665,0.70378 -2.39171,0.93846 -3.87555,0.92329 -0.79755,-0.008 -1.69537,-0.11368 -2.04983,-0.24094 z"
       id="path6" /></g></svg>
