<?xml version="1.0" encoding="UTF-8" standalone="no"?>
<!-- Created with Inkscape (http://www.inkscape.org/) -->

<svg
   version="1.1"
   id="svg1"
   width="92.31575"
   height="100.00012"
   viewBox="0 0 92.315761 100.00012"
   sodipodi:docname="scul.png"
   xml:space="preserve"
   inkscape:version="1.3.2 (091e20ef0f, 2023-11-25)"
   xmlns:inkscape="http://www.inkscape.org/namespaces/inkscape"
   xmlns:sodipodi="http://sodipodi.sourceforge.net/DTD/sodipodi-0.dtd"
   xmlns="http://www.w3.org/2000/svg"
   xmlns:svg="http://www.w3.org/2000/svg"><defs
     id="defs1" /><sodipodi:namedview
     id="namedview1"
     pagecolor="#505050"
     bordercolor="#ffffff"
     borderopacity="1"
     inkscape:showpageshadow="0"
     inkscape:pageopacity="0"
     inkscape:pagecheckerboard="1"
     inkscape:deskcolor="#505050"
     inkscape:zoom="2.4651074"
     inkscape:cx="13.792502"
     inkscape:cy="52.330377"
     inkscape:window-width="1920"
     inkscape:window-height="1080"
     inkscape:window-x="0"
     inkscape:window-y="0"
     inkscape:window-maximized="1"
     inkscape:current-layer="g1" /><g
     inkscape:groupmode="layer"
     inkscape:label="Image"
     id="g1"
     transform="translate(-38.463926,-98.905734)"><path
       style="fill:#ffffff;fill-opacity:1;stroke-width:1.23126"
       d="m 71.696423,198.85022 c -1.210979,-0.14155 -2.661447,-0.58711 -3.834738,-1.17797 -1.544409,-0.77775 -3.294618,-2.32082 -4.23695,-3.73551 -1.338784,-2.00986 -1.930888,-3.82238 -2.08543,-6.38379 -0.07876,-1.30526 -0.188538,-1.82754 -0.493551,-2.348 -0.293935,-0.50157 -0.542022,-0.77036 -0.956484,-1.03631 -0.658927,-0.42284 -1.160779,-0.54682 -2.536055,-0.6265 -2.014614,-0.11673 -3.424926,-0.47014 -4.979741,-1.24788 -1.179409,-0.58996 -2.060413,-1.23053 -3.040972,-2.21109 -1.67405,-1.67406 -2.650833,-3.47206 -3.157034,-5.8113 -0.142751,-0.65967 -0.172189,-1.09912 -0.206201,-3.07814 l -0.03967,-2.30861 -0.421395,-0.84049 c -1.280187,-2.55337 -2.930673,-6.57026 -4.030512,-9.8093 -2.622089,-7.72207 -3.613624,-14.44813 -3.069839,-20.82419 0.751739,-8.81441 3.827688,-16.42531 9.221378,-22.81671 0.994855,-1.17889 3.128864,-3.32301 4.321002,-4.3415 7.362792,-6.29024 17.346964,-10.268214 28.024757,-11.165848 11.038888,-0.927991 22.370072,1.730218 31.574772,7.407208 10.19097,6.28527 16.66912,15.80261 18.50373,27.1846 1.08097,6.70639 0.50623,13.54137 -1.81506,21.58546 -1.20154,4.16373 -3.34071,9.68989 -5.11537,13.21457 l -0.22168,0.44029 v 1.85211 c 0,2.17471 -0.076,3.0097 -0.38995,4.2864 -0.98792,4.01699 -3.6966,6.84679 -7.65095,7.99309 -0.94802,0.27482 -1.86528,0.41105 -3.30294,0.49054 -1.44209,0.0797 -1.92667,0.19675 -2.59758,0.62729 -0.41447,0.26595 -0.66255,0.53474 -0.95649,1.03631 -0.30501,0.52046 -0.4148,1.04274 -0.49355,2.348 -0.12079,2.00197 -0.47155,3.40241 -1.23273,4.92168 -0.60522,1.20798 -1.2567,2.10908 -2.22595,3.07884 -1.64008,1.64095 -3.44063,2.61714 -5.843044,3.16795 l -0.739961,0.16964 -12.69733,0.0133 c -6.983531,0.008 -12.957049,-0.017 -13.274481,-0.0542 z m 25.429937,-7.72793 c 0.69507,-0.18105 1.305861,-0.54656 1.805034,-1.08017 0.717466,-0.76697 1.083316,-1.69867 1.084556,-2.76204 10e-4,-1.18406 0.24495,-2.66985 0.62895,-3.83653 1.16366,-3.53556 3.8748,-6.12682 7.45054,-7.1211 0.91632,-0.25479 1.86943,-0.39289 3.23376,-0.46852 1.91028,-0.10586 2.74607,-0.44668 3.40353,-1.38774 0.5913,-0.84638 0.62195,-1.04726 0.66955,-4.38828 l 0.0422,-2.96271 0.31727,-0.61563 c 1.07293,-2.08197 3.21529,-7.49644 4.39978,-11.11979 1.87715,-5.74219 2.79835,-10.2658 2.91483,-14.31335 0.12113,-4.20947 -0.57725,-8.58027 -1.97603,-12.36683 -0.52048,-1.40897 -1.83322,-4.04569 -2.64735,-5.31739 -4.10226,-6.40787 -10.81865,-11.41733 -19.110361,-14.25354 -3.724249,-1.27391 -7.022739,-1.98311 -11.13968,-2.39514 -1.530058,-0.15313 -5.97944,-0.13145 -7.656875,0.0373 -4.627603,0.46555 -8.877371,1.48058 -12.928191,3.08781 -2.238479,0.88815 -5.38052,2.53496 -7.272106,3.81145 -2.556174,1.72495 -5.314365,4.19164 -7.084695,6.33591 -4.304169,5.21334 -6.571311,11.26252 -7.042313,18.79029 -0.249065,3.98071 0.223697,7.61452 1.661953,12.77429 1.206056,4.32675 3.626006,10.81059 5.468225,14.65118 l 0.494257,1.0304 v 2.62796 c 0,2.08117 0.02388,2.71965 0.114791,3.06865 0.32159,1.23468 1.180292,2.1783 2.40464,2.64243 0.423666,0.1606 0.734503,0.20999 1.674537,0.26605 0.634867,0.0378 1.465964,0.12165 1.846885,0.18612 3.92754,0.66513 7.055908,3.13902 8.464176,6.69338 0.522726,1.31932 0.771011,2.53547 0.879794,4.30939 0.07738,1.262 0.212058,1.78596 0.624031,2.42798 0.316508,0.49323 0.965323,1.09228 1.447838,1.3368 0.869049,0.44037 0.188087,0.41864 13.289308,0.42413 10.614221,0.004 12.139822,-0.01 12.537154,-0.11279 z m -17.895502,-7.72345 c -0.526083,-0.16832 -0.996338,-0.48416 -1.458671,-0.97968 -0.710721,-0.76175 -0.922605,-1.51489 -0.781644,-2.77835 0.337912,-3.02876 2.289611,-6.91255 4.774911,-9.50189 1.104923,-1.15116 2.257727,-1.92889 2.859159,-1.92889 0.60143,0 1.754236,0.77773 2.859158,1.92889 2.480093,2.58392 4.437706,6.47947 4.77491,9.50189 0.142363,1.27602 -0.05787,1.97766 -0.794362,2.7835 -0.900297,0.98508 -1.898292,1.29242 -3.260026,1.00397 -0.825157,-0.17479 -1.313756,-0.45033 -1.964513,-1.10789 -0.485782,-0.49085 -0.657681,-0.74043 -1.077349,-1.56427 -0.274639,-0.53914 -0.516657,-0.98025 -0.537818,-0.98025 -0.02116,0 -0.263182,0.44111 -0.537819,0.98025 -0.419668,0.82384 -0.591567,1.07342 -1.07735,1.56427 -0.650756,0.65756 -1.139355,0.9331 -1.964513,1.10789 -0.704931,0.14931 -1.284756,0.13991 -1.814073,-0.0294 z M 64.078024,168.07017 c -2.938562,-0.37826 -5.349576,-1.6405 -7.332648,-3.83891 -1.317285,-1.46033 -2.239437,-3.314 -2.680659,-5.38857 -0.247739,-1.16484 -0.247586,-3.29985 3.21e-4,-4.46331 0.24711,-1.15972 0.567647,-2.06234 1.094015,-3.0807 1.59735,-3.09039 4.488484,-5.26327 7.995529,-6.00916 0.670108,-0.14252 1.050984,-0.17186 2.231652,-0.17186 1.180666,0 1.561543,0.0293 2.231652,0.17186 1.137335,0.24189 2.052404,0.56804 3.07814,1.09715 3.094283,1.59606 5.265105,4.48222 6.011723,7.99271 0.142521,0.67012 0.171849,1.05099 0.171849,2.23165 0,1.18068 -0.02932,1.56155 -0.171849,2.23166 -0.755966,3.55445 -2.913915,6.39777 -6.107404,8.04715 -1.933422,0.99857 -4.427661,1.44994 -6.522321,1.18033 z m 38.476756,0 c -2.938562,-0.37826 -5.349576,-1.6405 -7.332646,-3.83891 -1.317286,-1.46033 -2.239437,-3.314 -2.680659,-5.38857 -0.247741,-1.16484 -0.247586,-3.29985 3.19e-4,-4.46331 0.247111,-1.15972 0.567648,-2.06234 1.094016,-3.0807 1.597351,-3.09039 4.488484,-5.26327 7.99553,-6.00916 0.67011,-0.14252 1.05098,-0.17186 2.23165,-0.17186 1.18067,0 1.56155,0.0293 2.23165,0.17186 1.13734,0.24189 2.05241,0.56804 3.07814,1.09715 3.09429,1.59606 5.26511,4.48222 6.01173,7.99271 0.14252,0.67012 0.17185,1.05099 0.17185,2.23165 0,1.18068 -0.0293,1.56155 -0.17185,2.23166 -0.75597,3.55445 -2.91392,6.39777 -6.10741,8.04715 -1.93342,0.99857 -4.42766,1.44994 -6.52232,1.18033 z"
       id="path2" /></g></svg>
